<svg width="575" height="323" viewBox="0 0 575 323" fill="none" xmlns="http://www.w3.org/2000/svg">
<path d="M179.043 150.681C174.246 150.681 170.066 149.516 166.503 147.187C163.077 144.72 160.062 141.568 157.458 137.73C154.991 133.893 152.799 129.713 150.88 125.191C149.098 120.531 147.385 116.077 145.741 111.829C143.274 104.977 141.013 99.0154 138.957 93.9448C136.901 88.7371 134.64 84.3517 132.173 80.7885C129.57 91.2039 127.445 101.208 125.801 110.801C124.293 120.394 123.334 131.084 122.923 142.87C120.456 145.199 117.647 146.981 114.495 148.214C111.48 149.448 108.396 150.064 105.244 150.064C100.448 150.064 96.1992 148.42 92.499 145.131C88.7988 141.705 86.9487 136.017 86.9487 128.069C86.9487 122.587 87.771 116.42 89.4155 109.568C91.0601 102.716 93.0472 95.6578 95.377 88.3945C97.8438 81.1311 100.311 74.0733 102.777 67.2211C105.244 60.3689 107.3 54.2019 108.944 48.7201C110.589 43.1013 111.411 38.6474 111.411 35.3583C111.411 31.9322 110.246 30.2191 107.917 30.2191C105.313 30.2191 102.161 32.2063 98.4605 36.1806C94.7603 40.0178 90.9916 45.4311 87.1543 52.4203L85.9209 52.0092C85.9209 43.7865 87.7025 36.4546 91.2656 30.0136C94.8288 23.5725 99.6253 18.1592 105.655 13.7738C111.822 9.25133 118.88 5.82522 126.829 3.49547C134.914 1.16572 143.343 0.000841373 152.113 0.000841373C163.762 0.000841373 173.218 1.85094 180.482 5.55113C187.745 9.11429 193.09 13.7738 196.516 19.5297C200.079 25.1485 201.86 31.1784 201.86 37.6195C201.86 44.1977 200.147 50.6387 196.721 56.9428C193.432 63.2468 188.704 68.523 182.537 72.7714C176.507 76.8827 169.312 79.281 160.953 79.9662C163.831 82.159 166.297 84.9684 168.353 88.3945C170.409 91.6835 172.533 95.4523 174.726 99.7006C176.644 103.538 178.906 107.238 181.509 110.801C184.113 114.227 187.676 115.94 192.199 115.94C194.529 115.94 196.447 115.392 197.955 114.296C199.462 113.062 200.764 111.075 201.86 108.334L203.094 108.951C203.779 111.007 204.19 112.994 204.327 114.913C204.601 116.831 204.738 118.613 204.738 120.257C204.738 128.891 202.34 136.154 197.544 142.047C192.747 147.803 186.58 150.681 179.043 150.681ZM142.452 61.8764C147.385 61.8764 151.634 60.78 155.197 58.5873C158.897 56.2576 161.706 53.4482 163.625 50.1591C165.681 46.733 166.709 43.3069 166.709 39.8808C166.709 35.6324 165.064 31.9322 161.775 28.7802C158.623 25.4911 153.415 23.8466 146.152 23.8466C145.056 23.8466 143.891 23.9151 142.657 24.0521C141.561 24.0521 140.465 24.1207 139.368 24.2577C139.505 25.217 139.574 26.1763 139.574 27.1356C139.574 27.9579 139.574 28.369 139.574 28.369C139.574 34.6731 139.3 40.7715 138.752 46.6645C138.34 52.5574 137.724 57.491 136.901 61.4653C137.861 61.6023 138.752 61.7393 139.574 61.8764C140.533 61.8764 141.492 61.8764 142.452 61.8764ZM291.137 150.27C286.341 150.27 282.161 148.694 278.598 145.542C275.035 142.39 273.253 137.251 273.253 130.124C273.253 129.439 273.253 128.754 273.253 128.069C273.253 127.384 273.322 126.698 273.459 126.013C269.347 134.236 264.688 140.334 259.48 144.309C254.409 148.146 249.27 150.064 244.063 150.064C239.266 150.064 234.744 148.42 230.495 145.131C226.247 141.705 222.821 136.703 220.217 130.124C217.613 123.546 216.311 115.598 216.311 106.279C216.311 96.6857 217.613 88.1204 220.217 80.5829C222.958 73.0455 226.521 66.6729 230.906 61.4653C235.292 56.2576 240.088 52.3518 245.296 49.748C250.504 47.0071 255.574 45.6366 260.508 45.6366C265.99 45.6366 270.923 47.3497 275.309 50.7758C279.694 54.0649 282.709 59.3411 284.354 66.6044C284.765 64.2747 285.039 62.1505 285.176 60.2318C285.45 58.3132 285.587 57.0113 285.587 56.3261C285.724 52.6259 287.574 49.885 291.137 48.1034C294.838 46.3218 298.88 45.4311 303.266 45.4311C307.103 45.4311 310.735 46.1848 314.161 47.6923C317.587 49.1998 319.917 51.7351 321.15 55.2983L321.561 56.5316C319.917 60.2318 318.272 64.6858 316.628 69.8935C314.983 75.1012 313.476 80.5829 312.105 86.3388C310.735 91.9576 309.638 97.5079 308.816 102.99C307.994 108.334 307.583 113.062 307.583 117.174C307.583 121.696 308.062 124.848 309.022 126.63C309.981 128.274 311.146 129.097 312.516 129.097C314.846 129.097 316.97 127.452 318.889 124.163L320.533 124.985C320.533 129.645 319.026 133.893 316.011 137.73C312.996 141.568 309.227 144.651 304.705 146.981C300.182 149.174 295.66 150.27 291.137 150.27ZM257.63 124.163C261.193 124.163 265.099 121.011 269.347 114.707C273.733 108.266 277.501 99.0839 280.653 87.1611C280.928 85.9277 281.202 84.7628 281.476 83.6664C281.75 82.433 281.955 81.2682 282.092 80.1718C279.9 75.1012 277.57 71.538 275.103 69.4823C272.773 67.2896 270.444 66.1933 268.114 66.1933C264.688 66.1933 261.467 68.0434 258.452 71.7436C255.574 75.3067 253.176 79.8292 251.257 85.311C249.476 90.7927 248.585 96.2745 248.585 101.756C248.585 109.294 249.407 114.913 251.052 118.613C252.833 122.313 255.026 124.163 257.63 124.163ZM361.936 150.064C357.55 150.064 353.371 149.105 349.396 147.187C345.559 145.131 342.407 141.979 339.94 137.73C337.61 133.482 336.446 128.069 336.446 121.491C336.446 117.928 336.788 113.268 337.473 107.512C338.159 101.756 339.049 95.4523 340.146 88.6C341.379 81.7478 342.613 74.8956 343.846 68.0434C341.105 68.1804 338.433 68.4545 335.829 68.8656C333.362 69.2768 330.895 69.7564 328.428 70.3046L328.017 68.8656C330.758 65.5766 333.636 62.7672 336.651 60.4374C339.666 58.1077 342.818 56.189 346.107 54.6816C347.889 45.6366 349.396 37.8251 350.63 31.247C351.863 24.5318 352.48 20.5575 352.48 19.3241C352.48 16.9943 354.261 15.0757 357.824 13.5682C361.525 12.0607 365.636 11.307 370.158 11.307C374.133 11.307 377.833 12.0607 381.259 13.5682C384.822 15.0757 387.221 17.611 388.454 21.1742C387.632 21.9965 386.467 25.08 384.959 30.4247C383.452 35.6324 381.876 42.0049 380.231 49.5424C382.835 49.6794 385.507 49.8165 388.248 49.9535C390.989 50.0906 393.799 50.2961 396.677 50.5702C396.951 51.3925 397.156 52.2833 397.293 53.2426C397.43 54.2019 397.499 55.2297 397.499 56.3261C397.499 58.3818 397.156 60.643 396.471 63.1098C395.923 65.4395 395.238 67.5637 394.415 69.4823C391.126 69.2083 388.043 68.9342 385.165 68.6601C382.287 68.2489 379.477 67.9749 376.737 67.8378C375.64 73.7307 374.612 79.6236 373.653 85.5165C372.831 91.4095 372.146 96.7542 371.597 101.551C371.186 106.347 370.981 110.116 370.981 112.857C370.981 118.613 372.009 122.45 374.064 124.369C376.257 126.287 378.861 127.247 381.876 127.247C384.617 127.247 387.083 126.698 389.276 125.602C391.469 124.506 393.045 123.204 394.004 121.696L396.06 122.313C395.238 127.932 393.045 132.865 389.482 137.114C385.919 141.225 381.67 144.446 376.737 146.775C371.803 148.968 366.869 150.064 361.936 150.064ZM447.003 150.681C436.999 150.681 428.708 148.694 422.13 144.72C415.552 140.608 410.618 135.264 407.329 128.686C404.04 121.97 402.395 114.776 402.395 107.101C402.395 99.8377 403.766 92.5743 406.507 85.311C409.385 77.9106 413.496 71.1954 418.841 65.1655C424.323 59.1355 430.901 54.2704 438.575 50.5702C446.387 46.87 455.158 45.0199 464.888 45.0199C476.948 45.0199 485.718 47.7608 491.2 53.2426C496.819 58.5873 499.628 65.0969 499.628 72.7714C499.628 79.3495 497.847 85.448 494.284 91.0668C490.858 96.5486 486.267 101.003 480.511 104.429C474.755 107.718 468.451 109.362 461.599 109.362C458.036 109.362 454.404 108.814 450.704 107.718C447.003 106.621 443.372 104.908 439.809 102.579C440.494 111.075 442.961 117.242 447.209 121.08C451.457 124.917 456.528 126.835 462.421 126.835C466.532 126.835 470.644 126.082 474.755 124.574C478.866 122.93 482.635 120.874 486.061 118.407C489.624 115.803 492.365 113.062 494.284 110.185L495.723 111.212C495.723 118.339 494.215 124.437 491.2 129.508C488.322 134.441 484.485 138.484 479.689 141.636C474.892 144.788 469.616 147.118 463.86 148.625C458.241 149.996 452.622 150.681 447.003 150.681ZM451.731 95.1782C456.117 95.1782 459.68 93.9448 462.421 91.478C465.162 88.8741 467.217 85.8592 468.588 82.433C469.958 79.0069 470.644 75.992 470.644 73.3881C470.644 70.2361 469.753 67.6322 467.971 65.5766C466.19 63.3839 463.723 62.2875 460.571 62.2875C458.104 62.2875 455.363 63.1783 452.348 64.9599C449.47 66.7415 446.866 69.825 444.537 74.2104C442.207 78.4588 440.699 84.4202 440.014 92.0947C444.4 94.1503 448.305 95.1782 451.731 95.1782Z" fill="#E1F0FC"/>
<path d="M277.147 322.261C272.101 322.261 267.291 321.157 262.718 318.949C258.303 316.584 254.676 312.957 251.838 308.069C249.157 303.18 247.817 296.951 247.817 289.382C247.817 285.283 248.211 279.921 248.999 273.298C249.788 266.675 250.813 259.422 252.074 251.537C253.493 243.653 254.913 235.768 256.332 227.884C253.178 228.041 250.103 228.357 247.107 228.83C244.268 229.303 241.43 229.855 238.592 230.486L238.119 228.83C241.272 225.045 244.584 221.813 248.053 219.132C251.522 216.451 255.149 214.244 258.934 212.509C260.984 202.102 262.718 193.113 264.137 185.544C265.557 177.817 266.266 173.244 266.266 171.825C266.266 169.145 268.316 166.937 272.416 165.202C276.674 163.468 281.404 162.6 286.608 162.6C291.181 162.6 295.439 163.468 299.381 165.202C303.481 166.937 306.24 169.854 307.66 173.954C306.713 174.9 305.373 178.448 303.638 184.598C301.904 190.59 300.09 197.923 298.198 206.596C301.194 206.753 304.269 206.911 307.423 207.069C310.577 207.226 313.809 207.463 317.121 207.778C317.436 208.724 317.673 209.749 317.83 210.853C317.988 211.957 318.067 213.14 318.067 214.401C318.067 216.767 317.673 219.368 316.884 222.207C316.254 224.888 315.465 227.332 314.519 229.539C310.734 229.224 307.186 228.909 303.875 228.593C300.563 228.12 297.331 227.805 294.177 227.647C292.916 234.428 291.733 241.208 290.629 247.989C289.683 254.77 288.895 260.92 288.264 266.439C287.791 271.958 287.554 276.294 287.554 279.448C287.554 286.071 288.737 290.486 291.102 292.694C293.625 294.902 296.621 296.005 300.09 296.005C303.244 296.005 306.083 295.375 308.606 294.113C311.129 292.852 312.942 291.354 314.046 289.619L316.411 290.329C315.465 296.794 312.942 302.471 308.842 307.359C304.742 312.09 299.854 315.795 294.177 318.476C288.5 320.999 282.823 322.261 277.147 322.261ZM375.029 322.97C363.518 322.97 353.978 320.684 346.409 316.111C338.839 311.38 333.163 305.23 329.378 297.661C325.594 289.934 323.701 281.656 323.701 272.825C323.701 264.468 325.278 256.11 328.432 247.753C331.743 239.237 336.474 231.511 342.624 224.572C348.932 217.634 356.501 212.036 365.331 207.778C374.319 203.521 384.412 201.392 395.607 201.392C409.484 201.392 419.576 204.546 425.884 210.853C432.349 217.003 435.582 224.493 435.582 233.324C435.582 240.893 433.532 247.91 429.432 254.375C425.49 260.683 420.207 265.808 413.584 269.75C406.961 273.535 399.707 275.427 391.823 275.427C387.723 275.427 383.544 274.796 379.287 273.535C375.029 272.273 370.85 270.302 366.75 267.621C367.539 277.398 370.377 284.494 375.266 288.909C380.154 293.325 385.988 295.532 392.769 295.532C397.5 295.532 402.23 294.665 406.961 292.93C411.692 291.038 416.028 288.673 419.97 285.834C424.07 282.838 427.224 279.685 429.432 276.373L431.088 277.556C431.088 285.756 429.353 292.773 425.884 298.607C422.572 304.284 418.157 308.936 412.638 312.563C407.119 316.19 401.048 318.87 394.425 320.605C387.96 322.182 381.494 322.97 375.029 322.97ZM380.469 259.106C385.515 259.106 389.615 257.687 392.769 254.849C395.923 251.852 398.288 248.383 399.865 244.441C401.442 240.499 402.23 237.03 402.23 234.034C402.23 230.407 401.205 227.411 399.155 225.045C397.106 222.522 394.267 221.261 390.64 221.261C387.802 221.261 384.648 222.286 381.179 224.336C377.867 226.386 374.871 229.934 372.191 234.98C369.51 239.868 367.775 246.728 366.987 255.558C372.033 257.923 376.527 259.106 380.469 259.106ZM534.083 322.497C528.564 322.497 523.754 320.684 519.655 317.057C515.555 313.43 513.505 307.517 513.505 299.317C513.505 298.528 513.505 297.74 513.505 296.951C513.505 296.163 513.584 295.375 513.741 294.586C509.011 304.048 503.649 311.065 497.657 315.638C491.822 320.053 485.909 322.261 479.917 322.261C474.398 322.261 469.194 320.368 464.306 316.584C459.417 312.642 455.475 306.886 452.479 299.317C449.483 291.748 447.985 282.602 447.985 271.879C447.985 260.841 449.483 250.985 452.479 242.312C455.633 233.639 459.733 226.307 464.779 220.315C469.825 214.322 475.344 209.828 481.336 206.832C487.328 203.678 493.163 202.102 498.84 202.102C505.147 202.102 510.824 204.073 515.87 208.015C520.916 211.799 524.385 217.87 526.278 226.228C526.751 223.547 527.066 221.103 527.224 218.895C527.539 216.688 527.697 215.19 527.697 214.401C527.854 210.144 529.983 206.99 534.083 204.94C538.341 202.89 542.993 201.865 548.039 201.865C552.454 201.865 556.633 202.732 560.575 204.467C564.517 206.201 567.198 209.119 568.617 213.219L569.09 214.638C567.198 218.895 565.306 224.02 563.413 230.012C561.521 236.005 559.786 242.312 558.21 248.935C556.633 255.4 555.371 261.787 554.425 268.094C553.479 274.244 553.006 279.685 553.006 284.415C553.006 289.619 553.558 293.246 554.662 295.296C555.765 297.188 557.106 298.134 558.683 298.134C561.363 298.134 563.808 296.242 566.015 292.457L567.907 293.403C567.907 298.765 566.173 303.653 562.704 308.069C559.235 312.484 554.898 316.032 549.694 318.713C544.491 321.236 539.287 322.497 534.083 322.497ZM495.528 292.457C499.628 292.457 504.122 288.831 509.011 281.577C514.057 274.165 518.393 263.6 522.02 249.881C522.335 248.462 522.651 247.122 522.966 245.86C523.281 244.441 523.518 243.101 523.676 241.839C521.153 236.005 518.472 231.905 515.633 229.539C512.953 227.016 510.272 225.755 507.591 225.755C503.649 225.755 499.943 227.884 496.474 232.141C493.163 236.241 490.403 241.445 488.196 247.753C486.146 254.06 485.121 260.368 485.121 266.675C485.121 275.348 486.067 281.813 487.959 286.071C490.009 290.329 492.532 292.457 495.528 292.457Z" fill="#E1F0FC"/>
<path d="M67.4219 229.226C62.1146 237.458 52.6978 242.435 41.5487 246.858C33.8608 264.692 24.1269 286.114 12.9808 290.269C10.4298 291.177 7.88916 291.149 5.39031 287.376C2.76074 283.335 0.138616 278.625 2.90091 270.766C7.04659 258.776 18.5019 250.88 31.7979 245.813C33.1693 242.752 34.5438 239.424 36.0504 236.231C31.8575 240.464 26.7376 243.884 21.3934 243.423C11.7748 242.514 11.6163 232.749 14.7901 223.958C17.8273 215.433 24.527 202.269 33.3527 190.331C34.4389 188.872 35.7745 189.021 36.6956 190.368C39.8571 194.683 38.9922 200.29 33.9567 208.124C29.0565 215.826 26.0536 221.276 23.4429 227.532C20.6955 234.054 20.9108 238.737 23.9832 239.039C29.1937 239.498 35.9749 231.015 42.9241 219.458C48.7842 209.627 54.6682 197.657 59.4243 190.889C60.6471 189.165 61.5861 188.908 62.7776 189.991C64.6228 192.418 65.6284 198.18 62.0758 204.961C57.9778 212.672 49.6422 228.627 43.8815 241.534C54.374 236.035 62.3482 228.501 67.7788 221.206C68.4578 220.278 69.6628 220.157 69.9153 221.497C70.1693 222.704 69.7339 225.775 67.4219 229.226ZM29.4621 251.403C11.9672 261.238 5.74573 279.49 8.11533 282.86C9.8253 285.42 20.9525 270.967 29.4621 251.403ZM171.576 231.324C167.613 238.902 159.382 245.497 151.493 245.409C142.801 245.312 139.518 239.926 140.674 232.183C135.926 238.281 129.027 245.292 121.413 244.539C111.928 243.631 111.769 233.866 114.809 225.074C115.916 221.743 117.699 217.751 120.019 213.631C116.255 215.328 112.098 216.351 107.958 215.904C104.757 227.101 96.4526 240.248 86.923 243.352C81.9577 244.901 75.1441 244.29 70.0068 237.279C64.2113 229.324 66.3452 217.847 72.348 207.215C77.5321 198.045 85.906 190.65 93.9349 190.204C97.9493 189.982 100.209 191.211 102.977 194.852C106.141 198.899 109.876 199.743 109.097 209.631C109.089 210.433 108.946 211.234 108.8 212.302C116.423 212.254 123.848 206.051 128.476 198.747C129.837 196.623 132.01 193.705 133.639 191.45C134.726 189.991 135.928 190.138 136.984 191.353C139.876 195.799 139.145 201.407 134.243 209.243C129.342 217.078 126.207 222.393 123.596 228.649C120.849 235.171 121.197 239.856 124.136 240.156C129.347 240.615 136.936 231.606 144.153 220.052C152.594 206.639 156.574 197.456 160.784 191.752C162.007 190.027 163.079 189.772 164.136 190.987C166.114 193.417 167.12 199.178 163.836 205.828C160.828 211.813 154.167 221.501 151.014 228.42C147.45 236.136 147.924 241.625 152.741 241.411C158.226 241.205 165.278 232.457 170.463 223.154C171.145 221.958 172.217 221.836 172.872 223.047C173.527 224.258 173.488 227.734 171.576 231.324ZM101.448 200.051C100.961 195.766 97.8748 196.668 97.4319 200.407C96.9905 204.013 98.0229 207.368 100.406 209.534C101.519 205.668 101.69 202.327 101.448 200.051ZM99.4267 213.401C94.9087 210.81 90.8217 205.549 90.8828 200.067C87.3734 202.97 83.3112 207.471 80.3113 212.653C74.5834 222.619 72.5757 234.767 76.018 237.881C79.4603 240.995 87.8044 236.274 94.6258 224.18C96.8085 220.326 98.186 216.731 99.4267 213.401ZM190.586 201.312C194.871 200.825 199.441 198.736 204.427 195.315C206.044 194.263 207.117 194.008 208.041 195.088C210.55 197.924 213.694 203.843 209.767 208.213C203.673 214.965 197.027 223.316 194.81 230.245C192.593 237.175 194.14 242.408 198.016 242.585C203.228 242.91 209.739 234.691 214.125 225.112C214.672 224.048 215.476 223.923 215.999 224.999C216.651 226.477 216.749 229.688 215.238 233.282C212.076 241.003 204.257 246.532 197.174 246.186C187.55 245.677 183.771 236.809 187.226 226.818C190.266 218.025 198.127 208.618 203.545 202.527C197.618 206.339 191.855 207.478 187.843 207.433C182.658 216.737 169.609 235.581 166.933 247.721C166.652 248.921 165.842 249.581 164.652 248.364C160.819 244.309 160.888 238.159 164.574 231.379C167.715 225.53 176.814 213.061 181.841 206.029C174.274 200.997 186.084 185.348 191.033 185.269C195.179 185.182 194.023 192.925 190.586 201.312Z" fill="#E1F0FC"/>
</svg>
