<svg width="612" height="614" viewBox="0 0 612 614" fill="none" xmlns="http://www.w3.org/2000/svg">
<path d="M421.354 235.231C421.58 235.246 421.774 235.315 421.936 235.439C422.098 235.562 422.17 235.78 422.15 236.09C422.124 236.486 421.905 236.812 421.492 237.069C421.135 237.33 420.576 237.648 419.815 238.025C419.053 238.401 418.051 239.004 416.807 239.831C416.039 240.321 415.422 240.877 414.957 241.499C414.52 242.123 414.178 242.81 413.932 243.56C413.685 244.31 413.504 245.149 413.388 246.077C413.302 246.979 413.226 247.952 413.159 248.997C413.052 251.116 413.06 253.201 413.184 255.25C413.308 257.299 413.511 259.226 413.792 261.03C414.076 262.806 414.411 264.429 414.799 265.9C415.189 267.343 415.593 268.559 416.012 269.55C416.87 271.646 417.994 273.348 419.385 274.657C420.776 275.965 422.516 276.686 424.605 276.819C426.074 276.913 427.367 276.641 428.485 276.004C429.631 275.369 430.622 274.511 431.456 273.43C432.293 272.321 432.997 271.062 433.569 269.652C434.143 268.215 434.619 266.757 434.997 265.278C435.375 263.8 435.652 262.357 435.827 260.951C436.03 259.546 436.165 258.322 436.232 257.277C436.411 254.482 436.321 252.335 435.964 250.838C435.606 249.341 434.993 248.281 434.126 247.658C433.775 247.381 433.365 247.142 432.896 246.942C432.426 246.742 431.955 246.57 431.483 246.426C431.012 246.254 430.567 246.112 430.149 246.001C429.733 245.861 429.399 245.754 429.149 245.682C428.537 245.501 428.111 245.289 427.871 245.047C427.66 244.807 427.566 244.489 427.592 244.093C427.617 243.698 427.764 243.396 428.033 243.186C428.331 242.95 428.692 242.845 429.116 242.873C429.935 242.925 431.031 243.066 432.406 243.296C433.78 243.525 435.4 243.7 437.263 243.819C438.28 243.884 439.399 243.899 440.62 243.864C441.871 243.802 443.081 243.723 444.25 243.628C445.42 243.504 446.492 243.374 447.465 243.238C448.439 243.074 449.186 242.923 449.705 242.786C450.109 242.67 450.439 242.606 450.695 242.594C450.953 242.554 451.153 242.539 451.294 242.548C451.633 242.569 451.909 242.672 452.125 242.856C452.34 243.04 452.437 243.287 452.417 243.598C452.397 243.908 452.311 244.158 452.157 244.346C452.033 244.509 451.839 244.666 451.574 244.819C450.895 245.23 450.233 245.613 449.586 245.968C448.942 246.295 448.442 246.802 448.086 247.488C447.794 248.065 447.55 248.772 447.355 249.61C447.159 250.448 446.965 251.485 446.773 252.72C446.611 253.929 446.419 255.377 446.197 257.064C446.004 258.753 445.748 260.763 445.429 263.096C445.067 265.653 444.622 268.389 444.096 271.304C443.569 274.219 442.921 277.254 442.152 280.408C441.414 283.536 440.526 286.768 439.491 290.104C438.455 293.44 437.262 296.809 435.91 300.21C434.528 303.637 432.987 306.686 431.285 309.355C429.581 312.053 427.721 314.316 425.705 316.143C423.688 317.97 421.546 319.322 419.279 320.197C417.01 321.101 414.647 321.475 412.19 321.317C410.439 321.205 408.861 320.835 407.455 320.207C406.05 319.578 404.856 318.736 403.875 317.681C402.919 316.656 402.203 315.448 401.725 314.056C401.247 312.665 401.061 311.136 401.168 309.47C401.281 307.691 401.64 306.07 402.244 304.606C402.875 303.172 403.677 301.933 404.651 300.89C405.651 299.876 406.792 299.113 408.072 298.599C409.381 298.087 410.783 297.88 412.28 297.975C413.494 298.053 414.54 298.318 415.418 298.771C416.325 299.226 417.068 299.798 417.648 300.488C418.227 301.177 418.646 301.941 418.905 302.779C419.161 303.646 419.261 304.518 419.205 305.393C419.156 306.155 418.984 306.853 418.689 307.486C418.419 308.149 418.043 308.707 417.561 309.158C417.077 309.637 416.487 309.996 415.791 310.235C415.123 310.476 414.38 310.57 413.561 310.518C412.601 310.457 411.821 310.251 411.219 309.9C410.646 309.552 410.176 309.139 409.81 308.662C409.444 308.185 409.151 307.656 408.933 307.075C408.714 306.522 408.505 306.013 408.308 305.546C408.111 305.08 407.896 304.684 407.661 304.357C407.427 304.03 407.098 303.853 406.675 303.826C406.223 303.797 405.803 303.94 405.414 304.255C405.025 304.571 404.672 304.988 404.356 305.506C404.065 306.055 403.828 306.663 403.643 307.332C403.457 308.029 403.341 308.73 403.296 309.436C403.21 310.791 403.37 312.049 403.778 313.209C404.186 314.37 404.788 315.372 405.584 316.217C406.409 317.063 407.401 317.736 408.56 318.236C409.717 318.763 411.001 319.072 412.413 319.163C414.785 319.314 416.895 318.911 418.742 317.952C420.618 316.994 422.272 315.739 423.704 314.186C425.135 312.633 426.366 310.898 427.396 308.979C428.453 307.09 429.32 305.274 429.999 303.532C430.677 301.789 431.187 300.248 431.528 298.909C431.895 297.6 432.135 296.736 432.246 296.318C433.357 291.371 434.141 287.083 434.6 283.455C435.087 279.829 435.399 276.957 435.534 274.839C435.579 274.133 435.604 273.525 435.608 273.015C435.643 272.479 435.657 272.026 435.653 271.657C435.651 271.232 435.647 270.863 435.638 270.55C435.403 271.131 435.123 271.736 434.799 272.368C434.537 272.918 434.228 273.536 433.872 274.222C433.518 274.88 433.122 275.535 432.683 276.188C432.119 277.03 431.415 277.85 430.57 278.647C429.755 279.417 428.804 280.107 427.716 280.718C426.658 281.302 425.48 281.766 424.182 282.108C422.914 282.424 421.546 282.535 420.078 282.441C417.565 282.28 415.424 281.619 413.656 280.457C411.887 279.294 410.395 277.796 409.18 275.96C407.965 274.124 406.978 272.048 406.219 269.732C405.49 267.388 404.893 264.969 404.429 262.472C403.993 259.978 403.628 257.488 403.333 255.002C403.067 252.519 402.79 250.205 402.502 248.06C402.388 247.174 402.171 246.578 401.85 246.274C401.53 245.97 401.129 245.803 400.649 245.772C400.113 245.738 399.558 245.759 398.986 245.836C398.414 245.913 397.973 245.941 397.663 245.921C397.408 245.905 397.201 245.821 397.041 245.669C396.909 245.519 396.85 245.331 396.864 245.105C396.895 244.625 397.198 244.318 397.774 244.185C399.066 243.927 400.216 243.675 401.224 243.427C402.261 243.182 403.198 242.93 404.037 242.672C404.904 242.415 405.714 242.155 406.468 241.892C407.224 241.6 407.995 241.295 408.781 240.976C410.586 240.241 412.163 239.52 413.512 238.812C414.862 238.105 416.036 237.485 417.034 236.954C418.032 236.422 418.867 235.994 419.54 235.668C420.241 235.344 420.846 235.199 421.354 235.231ZM453.969 257.901C454.171 254.739 454.848 251.918 455.999 249.44C457.151 246.934 458.689 244.835 460.612 243.144C462.534 241.452 464.797 240.208 467.4 239.41C470.033 238.586 472.902 238.273 476.008 238.472C478.803 238.651 481.343 239.281 483.627 240.363C485.939 241.447 487.901 242.919 489.511 244.78C491.124 246.612 492.33 248.802 493.131 251.348C493.962 253.868 494.28 256.666 494.083 259.744C493.85 263.387 493.043 266.468 491.663 268.988C490.311 271.51 488.635 273.543 486.637 275.088C484.667 276.635 482.499 277.73 480.133 278.372C477.769 278.986 475.471 279.222 473.24 279.08C470.558 278.908 468.002 278.305 465.573 277.271C463.175 276.21 461.084 274.772 459.3 272.957C457.517 271.142 456.125 268.969 455.124 266.438C454.154 263.881 453.769 261.035 453.969 257.901ZM475.309 240.086C473.7 239.983 472.276 240.303 471.038 241.046C469.829 241.763 468.8 242.788 467.949 244.123C467.1 245.43 466.433 246.989 465.949 248.801C465.494 250.586 465.203 252.482 465.075 254.486C464.968 256.152 464.959 257.839 465.049 259.546C465.138 261.252 465.33 262.909 465.624 264.516C465.948 266.096 466.362 267.597 466.867 269.018C467.401 270.413 468.06 271.646 468.842 272.717C469.624 273.787 470.532 274.654 471.567 275.315C472.633 275.95 473.829 276.31 475.156 276.395C476.878 276.505 478.343 276.216 479.549 275.528C480.786 274.813 481.797 273.857 482.582 272.66C483.369 271.435 483.954 270.054 484.335 268.519C484.747 266.958 485.004 265.387 485.105 263.805C485.354 259.909 485.288 256.502 484.908 253.586C484.527 250.67 483.889 248.233 482.994 246.276C482.1 244.291 480.991 242.789 479.667 241.768C478.372 240.75 476.919 240.189 475.309 240.086ZM512.963 240.496C513.133 240.507 513.28 240.644 513.405 240.907C513.53 241.17 513.643 241.829 513.746 242.885C513.99 245.282 514.191 247.45 514.351 249.388C514.51 251.326 514.694 253.11 514.901 254.739C515.342 258.481 515.795 261.828 516.258 264.778C516.75 267.729 517.383 270.236 518.159 272.299C518.934 274.362 519.938 275.957 521.17 277.085C522.43 278.214 524.062 278.843 526.067 278.971C527.507 279.064 528.785 278.819 529.899 278.238C531.015 277.629 531.976 276.798 532.781 275.743C533.615 274.663 534.319 273.418 534.891 272.008C535.463 270.599 535.925 269.14 536.276 267.632C536.658 266.097 536.94 264.569 537.122 263.05C537.335 261.504 537.482 260.082 537.565 258.783C537.643 257.569 537.692 256.367 537.711 255.178C537.73 253.988 537.6 252.916 537.321 251.963C537.044 250.981 536.556 250.185 535.858 249.573C535.19 248.935 534.178 248.572 532.823 248.486C532.004 248.433 531.167 248.451 530.311 248.538C529.454 248.625 528.631 248.643 527.84 248.592C527.445 248.567 527.112 248.461 526.84 248.273C526.597 248.087 526.487 247.811 526.51 247.444C526.538 247.02 526.711 246.748 527.031 246.627C527.352 246.477 527.754 246.389 528.238 246.364C528.748 246.368 529.344 246.363 530.025 246.35C530.706 246.337 531.446 246.299 532.244 246.237C533.072 246.148 533.944 246.034 534.86 245.894C535.778 245.726 536.73 245.475 537.715 245.141C538.527 244.853 539.301 244.505 540.036 244.099C540.799 243.694 541.475 243.312 542.065 242.953C542.685 242.567 543.216 242.247 543.658 241.991C544.128 241.738 544.49 241.619 544.744 241.636C545.054 241.655 545.236 241.922 545.288 242.436C545.37 242.923 545.426 243.607 545.454 244.488C545.491 245.681 545.505 247.241 545.495 249.169C545.514 251.098 545.533 253.225 545.555 255.552C545.604 257.88 545.661 260.322 545.724 262.877C545.817 265.407 545.955 267.91 546.137 270.389C546.223 271.698 546.395 272.773 546.654 273.611C546.914 274.422 547.241 275.067 547.636 275.545C548.03 276.024 548.476 276.365 548.974 276.567C549.501 276.742 550.075 276.85 550.697 276.889C551.967 276.971 553.131 276.946 554.189 276.815C555.276 276.658 556.088 276.596 556.625 276.631C557.161 276.665 557.508 276.786 557.665 276.995C557.821 277.203 557.892 277.435 557.875 277.689C557.859 277.943 557.758 278.192 557.572 278.435C557.389 278.65 557.024 278.811 556.478 278.918C555.677 279.037 554.579 279.137 553.184 279.218C551.792 279.27 550.141 279.363 548.233 279.496C546.694 279.625 545.365 279.795 544.246 280.007C543.156 280.192 542.301 280.265 541.68 280.225C541.059 280.186 540.588 280.014 540.267 279.71C539.974 279.407 539.77 278.841 539.653 278.012C539.536 277.182 539.423 276.282 539.315 275.311C539.209 274.312 539.103 273.313 538.996 272.314C538.918 271.316 538.826 270.318 538.72 269.319C538.642 268.322 538.561 267.381 538.475 266.496C538.152 268.007 537.768 269.57 537.325 271.186C536.881 272.802 536.327 274.383 535.661 275.928C535.025 277.446 534.266 278.886 533.386 280.248C532.535 281.582 531.525 282.737 530.357 283.711C529.189 284.686 527.851 285.436 526.343 285.964C524.863 286.493 523.191 286.698 521.328 286.578C518.278 286.383 515.718 285.412 513.647 283.663C511.605 281.888 510.116 279.468 509.178 276.403C508.633 274.723 508.222 272.953 507.944 271.093C507.666 269.232 507.456 267.418 507.314 265.651C507.172 263.884 507.064 262.247 506.99 260.74C506.946 259.206 506.872 257.926 506.768 256.898C506.665 255.843 506.495 254.967 506.256 254.271C506.047 253.549 505.785 252.979 505.472 252.562C505.158 252.145 504.794 251.853 504.38 251.685C503.995 251.49 503.577 251.378 503.125 251.349C502.674 251.32 502.175 251.359 501.629 251.466C501.114 251.547 500.582 251.654 500.035 251.789C499.518 251.898 499.015 252.008 498.526 252.118C498.038 252.2 497.597 252.229 497.202 252.204C496.948 252.187 496.684 252.1 496.411 251.94C496.167 251.755 496.06 251.436 496.089 250.984C496.122 250.476 496.369 250.151 496.832 250.011C497.296 249.842 497.889 249.667 498.609 249.487C499.5 249.289 500.556 248.973 501.774 248.541C503.021 248.11 504.351 247.487 505.764 246.67C506.942 245.98 507.923 245.277 508.705 244.561C509.518 243.819 510.185 243.153 510.704 242.563C511.254 241.946 511.697 241.45 512.033 241.074C512.399 240.672 512.709 240.48 512.963 240.496ZM569.273 237.123C569.252 237.462 569.207 237.941 569.139 238.561C569.073 239.152 569.019 239.772 568.977 240.421C568.925 241.24 568.911 242.118 568.936 243.056C568.992 243.966 569.065 244.822 569.155 245.621C569.276 246.394 569.39 247.054 569.496 247.599C569.633 248.118 569.758 248.382 569.871 248.389C569.984 248.396 570.166 247.997 570.416 247.19C570.694 246.386 571.07 245.375 571.545 244.158C572.048 242.943 572.67 241.65 573.409 240.28C574.151 238.881 575.07 237.593 576.166 236.416C577.262 235.238 578.542 234.285 580.006 233.557C581.498 232.83 583.219 232.529 585.167 232.654C586.974 232.769 588.465 233.177 589.64 233.875C590.842 234.576 591.781 235.416 592.455 236.395C593.13 237.373 593.587 238.423 593.827 239.544C594.069 240.637 594.16 241.664 594.098 242.624C594.003 244.12 593.721 245.421 593.253 246.525C592.788 247.601 592.192 248.484 591.468 249.175C590.771 249.867 589.987 250.384 589.115 250.725C588.244 251.038 587.371 251.167 586.496 251.111C584.886 251.008 583.598 250.543 582.63 249.715C581.662 248.888 581.225 247.74 581.319 246.272C581.37 245.481 581.512 244.81 581.746 244.258C582.008 243.707 582.321 243.245 582.685 242.872C583.077 242.5 583.522 242.202 584.018 241.979C584.544 241.729 585.109 241.538 585.713 241.407C586.951 241.117 587.798 240.718 588.256 240.209C588.742 239.701 589.008 239.094 589.053 238.388C589.08 237.965 589.022 237.55 588.878 237.144C588.762 236.74 588.53 236.37 588.183 236.036C587.866 235.676 587.431 235.379 586.879 235.145C586.355 234.913 585.698 234.772 584.907 234.721C583.298 234.618 581.862 234.909 580.599 235.594C579.338 236.25 578.215 237.185 577.23 238.398C576.247 239.582 575.406 240.974 574.709 242.574C574.011 244.174 573.421 245.866 572.938 247.649C572.457 249.405 572.073 251.195 571.786 253.019C571.53 254.817 571.351 256.507 571.25 258.088C571.157 259.528 571.114 261.099 571.118 262.801C571.125 264.474 571.158 266.163 571.219 267.868C571.309 269.575 571.415 271.24 571.538 272.864C571.661 274.488 571.779 275.97 571.891 277.31C572.032 278.651 572.157 279.807 572.265 280.778C572.373 281.749 572.457 282.421 572.519 282.793C572.748 284.084 573.171 285.004 573.788 285.554C574.435 286.077 575.309 286.374 576.41 286.445C576.89 286.475 577.385 286.493 577.895 286.497C578.434 286.503 578.83 286.514 579.084 286.53C579.847 286.579 580.21 286.886 580.174 287.451C580.145 287.903 579.914 288.185 579.481 288.3C579.133 288.419 578.521 288.465 577.644 288.437C576.795 288.411 575.791 288.375 574.631 288.33C573.5 288.286 572.269 288.249 570.938 288.221C569.607 288.192 568.316 288.209 567.065 288.271C565.67 288.352 564.314 288.506 562.995 288.733C561.678 288.933 560.46 289.138 559.341 289.35C558.223 289.534 557.235 289.698 556.375 289.841C555.515 289.984 554.831 290.04 554.323 290.007C553.786 289.973 553.427 289.837 553.243 289.598C553.06 289.36 552.977 289.113 552.993 288.859C553.02 288.436 553.208 288.15 553.558 288.002C553.938 287.828 554.445 287.662 555.079 287.504C555.568 287.394 556.141 287.289 556.8 287.189C557.488 287.063 558.297 286.831 559.226 286.494C560.155 286.156 560.809 285.673 561.19 285.046C561.6 284.391 561.849 283.387 561.935 282.031C561.962 281.608 561.979 280.9 561.986 279.908C561.995 278.888 561.987 277.683 561.962 276.292C561.966 274.903 561.95 273.385 561.913 271.738C561.907 270.065 561.888 268.363 561.857 266.631C561.828 264.871 561.784 263.125 561.725 261.392C561.694 259.66 561.655 258.042 561.61 256.536C561.566 255.002 561.512 253.638 561.446 252.443C561.409 251.25 561.371 250.298 561.332 249.586C561.273 248.732 561.146 248.058 560.951 247.563C560.757 247.04 560.513 246.642 560.219 246.368C559.925 246.094 559.568 245.915 559.148 245.832C558.758 245.722 558.323 245.651 557.843 245.621L556.106 245.51C555.965 245.5 555.781 245.489 555.556 245.474C555.36 245.433 555.165 245.378 554.971 245.309C554.778 245.212 554.616 245.088 554.484 244.938C554.38 244.79 554.335 244.602 554.35 244.377C554.37 244.066 554.511 243.848 554.774 243.723C555.038 243.598 555.355 243.519 555.725 243.486C557.148 243.407 558.434 243.248 559.583 243.01C560.761 242.774 561.926 242.281 563.08 241.533C563.792 241.04 564.543 240.379 565.333 239.55C566.153 238.696 566.835 237.789 567.378 236.832C567.762 236.148 568.152 235.818 568.547 235.843C568.914 235.867 569.131 236.023 569.198 236.31C569.265 236.598 569.29 236.869 569.273 237.123Z" fill="white"/>
<path d="M169.053 277.914L128.319 158.402L173.136 143.127C182.317 139.998 190.564 138.967 197.876 140.036C205.226 141.091 211.478 143.954 216.631 148.625C221.809 153.243 225.697 159.365 228.296 166.99C230.908 174.654 231.542 181.863 230.197 188.618C228.877 195.321 225.59 201.283 220.335 206.504C215.067 211.687 207.842 215.843 198.661 218.972L166.74 229.851L160.614 211.878L189.617 201.993C194.986 200.163 199.13 197.926 202.05 195.28C204.956 192.596 206.736 189.536 207.388 186.101C208.067 182.613 207.683 178.748 206.238 174.508C204.793 170.267 202.723 166.934 200.029 164.509C197.322 162.045 193.992 160.618 190.038 160.229C186.07 159.8 181.383 160.508 175.975 162.351L156.135 169.113L190.703 270.535L169.053 277.914ZM212.335 202.717L260.379 246.787L236.22 255.021L188.701 210.772L212.335 202.717ZM301.407 234.823C295.727 236.759 290.266 237.491 285.025 237.019C279.809 236.495 275.196 234.681 271.185 231.575C267.213 228.457 264.225 223.96 262.223 218.086C260.499 213.028 260.008 208.528 260.748 204.585C261.488 200.641 263.135 197.127 265.688 194.043C268.24 190.958 271.367 188.22 275.069 185.83C278.795 183.387 282.758 181.19 286.956 179.238C292.022 176.903 296.117 174.965 299.239 173.423C302.347 171.843 304.482 170.334 305.642 168.896C306.828 167.406 307.076 165.65 306.386 163.627L306.267 163.277C304.769 158.881 302.305 155.921 298.876 154.397C295.448 152.874 291.283 152.947 286.381 154.618C281.207 156.381 277.487 158.909 275.221 162.199C272.995 165.477 271.88 168.831 271.877 172.262L251.198 176.184C250.898 170.207 251.914 164.78 254.247 159.903C256.567 154.988 260.002 150.734 264.553 147.142C269.091 143.511 274.491 140.628 280.755 138.493C285.073 137.021 289.544 136.062 294.168 135.615C298.792 135.168 303.272 135.508 307.608 136.636C311.931 137.724 315.838 139.888 319.33 143.127C322.861 146.353 325.641 150.942 327.67 156.894L348.117 216.883L327.809 223.805L323.612 211.492L322.912 211.73C322.477 214.658 321.463 217.609 319.872 220.583C318.306 223.505 315.997 226.224 312.947 228.74C309.922 231.204 306.075 233.232 301.407 234.823ZM301.602 217.43C305.842 215.985 309.233 213.896 311.776 211.162C314.304 208.39 315.928 205.318 316.646 201.946C317.403 198.562 317.218 195.216 316.091 191.909L312.491 181.347C312.015 182.117 311.06 183.007 309.624 184.018C308.227 185.015 306.615 186.02 304.789 187.034C302.963 188.047 301.144 189.014 299.33 189.936C297.517 190.858 295.943 191.655 294.609 192.327C291.603 193.829 289.022 195.491 286.863 197.312C284.705 199.133 283.204 201.164 282.362 203.406C281.506 205.608 281.542 208.071 282.47 210.794C283.796 214.684 286.217 217.138 289.733 218.154C293.249 219.17 297.205 218.929 301.602 217.43ZM383.566 104.754L389.135 121.094L337.607 138.656L332.038 122.317L383.566 104.754ZM337.441 96.5059L358.565 89.3059L387.246 173.454C388.214 176.294 389.384 178.327 390.757 179.553C392.156 180.726 393.668 181.34 395.293 181.394C396.918 181.448 398.606 181.177 400.357 180.58C401.679 180.129 402.852 179.621 403.875 179.055C404.937 178.476 405.733 178.009 406.264 177.655L415.452 192.956C414.457 193.73 412.988 194.708 411.046 195.891C409.143 197.06 406.708 198.194 403.738 199.293C398.501 201.252 393.463 202.079 388.626 201.774C383.775 201.429 379.469 199.814 375.706 196.928C371.982 194.029 369.185 189.771 367.315 184.156L337.441 96.5059ZM471.099 176.921C462.112 179.984 453.715 180.762 445.906 179.254C438.123 177.695 431.307 174.069 425.459 168.377C419.597 162.645 415.069 155.092 411.873 145.716C408.731 136.496 407.723 127.807 408.851 119.65C410.005 111.44 413.089 104.31 418.104 98.2583C423.106 92.1677 429.887 87.6638 438.446 84.7467C443.97 82.8638 449.488 81.9818 455 82.1007C460.537 82.1674 465.823 83.4055 470.856 85.8152C475.928 88.2116 480.528 91.8979 484.656 96.8742C488.771 101.812 492.167 108.21 494.846 116.068L497.053 122.546L423.584 147.586L418.731 133.348L471.951 115.209C470.533 111.176 468.431 107.876 465.645 105.308C462.846 102.701 459.598 101.007 455.902 100.226C452.244 99.4321 448.392 99.7245 444.346 101.104C440.028 102.575 436.593 104.919 434.041 108.133C431.476 111.309 429.856 114.901 429.181 118.908C428.532 122.864 428.871 126.852 430.197 130.872L434.434 143.302C436.211 148.515 438.689 152.664 441.868 155.749C445.034 158.795 448.667 160.727 452.766 161.544C456.853 162.323 461.192 161.93 465.782 160.365C468.856 159.317 471.491 157.941 473.689 156.237C475.874 154.493 477.589 152.454 478.834 150.119C480.079 147.784 480.738 145.193 480.81 142.346L501.29 137.841C501.821 143.479 501 148.839 498.824 153.923C496.675 158.955 493.261 163.462 488.582 167.445C483.891 171.388 478.063 174.547 471.099 176.921Z" fill="white"/>
<path d="M100.508 395.536C93.6707 394.05 88.9061 391.444 86.2148 387.718C89.5411 377.803 91.7518 371.15 92.8467 367.761C94.0262 364.357 95.1477 359.271 96.2113 352.503C97.3455 345.636 97.7967 338.837 97.5648 332.106L185.423 317.752L291.031 300.498C295.851 316.719 305.295 333.095 319.364 349.627C318.082 354.001 314.099 358.037 307.414 361.732C298.426 350.271 286.486 341.461 271.596 335.303C256.776 329.047 238.633 327.672 217.165 331.18C219.913 352.251 223.635 377.155 228.33 405.892C234.323 442.574 239.116 469.255 242.709 485.937C243.389 489.036 253.22 489.99 272.203 488.798C274.523 493.972 275.245 499.451 274.368 505.235C246.873 509.033 230.885 511.298 226.406 512.03C219.644 513.134 200.767 516.566 169.774 522.323C166.708 516.837 165.818 511.385 167.102 505.969C185.139 501.113 194 497.192 193.686 494.206C191.052 472.769 187.09 445.865 181.801 413.494C177.382 386.447 173.026 361.907 168.732 339.873C134.317 350.182 111.576 368.736 100.508 395.536ZM128.454 341.117L172.62 332.6C178.05 360.522 182.843 387.204 186.999 412.644C192.343 445.354 196.305 472.258 198.884 493.357C199.737 499.639 190.595 505.298 171.46 510.333C171.004 511.796 171.329 513.782 172.433 516.292C186.719 513.437 201.426 510.774 216.555 508.302C234.558 505.361 251.884 502.791 268.532 500.591C268.96 498.96 268.636 496.973 267.559 494.633C239.222 497.527 224.444 495.776 223.226 489.38C217.796 461.457 212.989 434.691 208.805 409.082C203.489 376.542 199.541 349.722 196.962 328.623L216.569 325.94C258.826 320.078 289.558 329.722 308.766 354.873C310.826 353.668 312.076 352.293 312.517 350.745C301.248 334.884 289.794 324.26 278.153 318.872C266.513 313.485 250.339 312.483 229.632 315.866L186.273 322.95C177.06 324.455 163.15 326.684 144.541 329.638C125.933 332.591 112.107 334.807 103.064 336.284C103.195 339.213 103.094 342.31 102.759 345.575C102.425 348.841 102.057 351.634 101.655 353.956C101.324 356.18 100.604 359.204 99.4932 363.03C98.4673 366.843 97.7621 369.431 97.3776 370.795C96.9793 372.075 96.055 374.916 94.6048 379.319C93.2392 383.707 92.4287 386.182 92.1735 386.745C93.0844 388.071 94.7499 388.97 97.1701 389.443C101.555 378.573 105.01 370.503 107.533 365.231C110.056 359.96 113.205 354.803 116.98 349.76C120.826 344.62 124.651 341.739 128.454 341.117ZM366.885 373.883C373.646 372.779 378.907 374.175 382.668 378.073C386.415 381.887 388.82 387.047 389.884 393.555C390.284 396.007 390.317 398.865 389.983 402.13L340.539 410.208C341.433 399.215 344.381 390.707 349.385 384.683C354.459 378.56 360.292 374.961 366.885 373.883ZM340.679 419.036L409.774 407.748C410.436 403.301 410.401 398.838 409.669 394.358C408.054 384.469 403.869 376.649 397.115 370.897C390.432 365.047 380.963 363.123 368.708 365.125C352.733 367.735 340.241 375.72 331.229 389.081C322.218 402.441 319.169 418.038 322.083 435.872C325.19 454.889 332.728 468.366 344.699 476.303C356.669 484.24 369.669 487.062 383.699 484.77C394.095 483.071 403.275 478.708 411.238 471.68C419.272 464.553 424.435 454.989 426.726 442.986C425.321 441.827 423.521 441.167 421.326 441.005C421.07 441.567 420.284 443.128 418.966 445.686C417.72 448.146 416.799 449.945 416.204 451.083C415.595 452.137 414.428 453.76 412.703 455.951C411.049 458.043 409.362 459.664 407.64 460.813C406.004 461.948 403.86 463.166 401.209 464.467C398.544 465.683 395.563 466.561 392.267 467.099C379.251 469.226 368.269 467.072 359.321 460.637C350.359 454.118 344.639 444.335 342.161 431.29C341.677 428.332 341.183 424.247 340.679 419.036ZM418.324 435.378C423.842 435.691 428.587 437.649 432.56 441.252C429.897 455.224 424.081 466.371 415.114 474.691C406.147 483.011 395.959 488.103 384.548 489.968C368.997 492.508 354.66 489.471 341.537 480.854C328.499 472.224 320.282 457.513 316.885 436.721C313.806 417.873 317.013 401.122 326.507 386.468C336.072 371.715 351.504 362.599 372.803 359.119C405.005 353.858 423.295 364.624 427.672 391.417C428.528 396.657 428.297 402.943 426.978 410.274L358.897 421.397L360.244 429.637C362.337 439.795 366.486 447.665 372.692 453.246C378.883 458.743 386.59 461.302 395.813 460.923C401.055 459.546 405.154 457.011 408.108 453.317C411.062 449.624 414.468 443.644 418.324 435.378ZM384.686 394.405C383.167 385.107 379.121 379.998 372.549 379.076C365.484 382.573 361.039 390.154 359.213 401.82L384.95 397.616C384.895 397.278 384.854 396.764 384.828 396.074C384.802 395.384 384.755 394.827 384.686 394.405ZM479.734 370.676C483.816 370.703 487.199 371.756 489.882 373.834C492.635 375.814 494.315 378.663 494.923 382.382C495.655 386.862 494.783 390.822 492.308 394.264C489.82 397.621 486.166 399.693 481.349 400.48C476.362 401.294 471.55 400.258 466.913 397.371C462.276 394.484 459.426 389.787 458.363 383.279C456.554 372.206 460.331 362.391 469.693 353.833C479.139 345.261 492.357 339.587 509.345 336.811C525.488 334.174 537.346 335.577 544.917 341.022C552.559 346.369 557.63 356.691 560.129 371.989L567.379 416.362L575.451 414.783C582.465 414.158 587.821 416.667 591.52 422.31L588.602 429.946C586.631 434.347 584.937 437.791 583.522 440.278C582.176 442.667 580.119 445.477 577.349 448.706C574.579 451.935 571.136 454.494 567.018 456.381C562.901 458.269 557.969 459.682 552.221 460.621C545.122 461.781 539.32 459.996 534.815 455.265C526.764 463.348 515.386 468.592 500.679 470.994C494.256 472.044 488.596 471.927 483.701 470.644C478.903 469.432 475.179 467.351 472.528 464.4C469.96 461.435 468.02 458.585 466.705 455.849C465.39 453.113 464.491 450.266 464.008 447.308C461.978 434.884 464.643 424.903 472.002 417.366C479.362 409.829 495.23 400.728 519.607 390.064L517.35 376.245C516.245 369.483 514 364.774 510.616 362.116C507.316 359.444 503.426 358.474 498.946 359.206C489.395 360.767 482.991 364.59 479.734 370.676ZM526.752 401.132L531.081 427.629C524.721 439.689 517.315 446.409 508.863 447.79C503.961 448.591 499.753 448.063 496.239 446.208C492.81 444.338 490.743 441.248 490.039 436.938C488.906 430.007 490.806 423.839 495.737 418.435C500.752 413.016 511.091 407.249 526.752 401.132ZM525.614 426.83L523.087 411.363C511.564 417.845 506.506 425.396 507.915 434.017C508.508 437.652 510.233 439.973 513.088 440.982C517.305 438.644 521.48 433.927 525.614 426.83ZM479.526 389.323C476.568 389.806 474.145 387.989 472.257 383.872C469.435 377.218 470.518 370.836 475.508 364.728C480.426 358.718 488.676 354.767 500.255 352.875C505.749 351.977 510.496 353.414 514.496 357.186C518.483 360.874 521.167 366.944 522.548 375.396L525.427 393.018C501.543 403.515 485.76 412.342 478.078 419.497C470.382 426.569 467.425 435.556 469.206 446.459C470.145 452.206 472.973 457.298 477.689 461.734C482.392 466.086 489.772 467.44 499.83 465.796C503.802 465.147 507.418 463.906 510.676 462.072C514.019 460.224 517.321 457.602 520.585 454.205C523.919 450.71 525.946 448.513 526.667 447.615C527.388 446.716 528.568 445.178 530.209 443.001C531.919 440.725 532.846 439.489 532.987 439.293C536.116 451.538 542.244 456.915 551.372 455.423C553.654 455.05 556.178 454.031 558.943 452.364C561.708 450.697 564.286 447.89 566.678 443.941C569.155 439.979 570.683 437.386 571.265 436.163C571.917 434.842 572.845 432.824 574.051 430.111C575.242 427.313 576.142 425.387 576.751 424.333C575.266 422.146 572.932 421.139 569.749 421.312C566.261 429.171 562.094 433.409 557.248 434.027C553.756 434.424 551.622 432.256 550.849 427.523L542.253 374.91C540.044 361.386 535.821 352.271 529.585 347.562C523.42 342.755 513.913 341.402 501.066 343.501C489.487 345.392 479.919 350.036 472.363 357.432C464.878 364.729 461.901 373.068 463.434 382.45C464.221 387.268 466.315 390.787 469.715 393.009C473.101 395.145 476.696 395.903 480.499 395.282C481.407 393.398 481.082 391.412 479.526 389.323Z" fill="white"/>
</svg>
