<svg width="546" height="114" viewBox="0 0 546 114" fill="none" xmlns="http://www.w3.org/2000/svg">
<path d="M56.2726 91.2323C53.6622 91.2323 51.3875 90.5984 49.4483 89.3305C47.5837 87.988 45.9429 86.2726 44.5258 84.1843C43.1834 82.096 41.99 79.8212 40.9459 77.36C39.9763 74.8242 39.044 72.4002 38.149 70.0882C36.8065 66.359 35.5759 63.1147 34.4572 60.3551C33.3384 57.521 32.1078 55.1343 30.7653 53.1952C29.3483 58.8635 28.1922 64.308 27.2973 69.5288C26.4768 74.7496 25.9548 80.567 25.731 86.9811C24.3885 88.249 22.8596 89.2186 21.1442 89.8898C19.5034 90.5611 17.8253 90.8967 16.1099 90.8967C13.4995 90.8967 11.1874 90.0017 9.17367 88.2117C7.15994 86.3472 6.15307 83.252 6.15307 78.9262C6.15307 75.9429 6.60057 72.5867 7.49556 68.8575C8.39055 65.1284 9.472 61.2874 10.7399 57.3345C12.0824 53.3816 13.4249 49.5406 14.7674 45.8115C16.1099 42.0824 17.2286 38.7261 18.1236 35.7428C19.0186 32.6849 19.4661 30.261 19.4661 28.471C19.4661 26.6065 18.8321 25.6742 17.5642 25.6742C16.1471 25.6742 14.4317 26.7556 12.418 28.9185C10.4043 31.0068 8.35326 33.9529 6.26494 37.7566L5.5937 37.5328C5.5937 33.0579 6.56327 29.0677 8.50242 25.5623C10.4416 22.0569 13.052 19.1109 16.3336 16.7243C19.6898 14.263 23.5308 12.3985 27.8566 11.1306C32.257 9.86266 36.8438 9.2287 41.6171 9.2287C47.9566 9.2287 53.1029 10.2356 57.0557 12.2493C61.0086 14.1884 63.9173 16.7243 65.7819 19.8567C67.7211 22.9146 68.6906 26.1963 68.6906 29.7016C68.6906 33.2816 67.7583 36.787 65.8938 40.2178C64.1038 43.6486 61.5307 46.52 58.1745 48.8321C54.8928 51.0696 50.9772 52.3748 46.4277 52.7477C47.9939 53.941 49.3364 55.47 50.4552 57.3345C51.5739 59.1245 52.7299 61.1755 53.9233 63.4876C54.9674 65.5759 56.198 67.5896 57.6151 69.5288C59.0322 71.3933 60.9713 72.3256 63.4326 72.3256C64.7005 72.3256 65.7446 72.0273 66.565 71.4306C67.3854 70.7594 68.094 69.6779 68.6906 68.1863L69.3619 68.5219C69.7348 69.6407 69.9585 70.7221 70.0331 71.7663C70.1823 72.8104 70.2569 73.78 70.2569 74.675C70.2569 79.3737 68.9517 83.3266 66.3413 86.5336C63.7309 89.6661 60.3747 91.2323 56.2726 91.2323ZM36.359 42.9028C39.044 42.9028 41.3561 42.3061 43.2952 41.1128C45.309 39.8449 46.8379 38.3159 47.8821 36.526C49.0008 34.6614 49.5602 32.7968 49.5602 30.9323C49.5602 28.6202 48.6652 26.6065 46.8752 24.8911C45.1598 23.1011 42.3257 22.2061 38.3728 22.2061C37.7761 22.2061 37.1422 22.2434 36.4709 22.318C35.8743 22.318 35.2776 22.3552 34.6809 22.4298C34.7555 22.9519 34.7928 23.474 34.7928 23.9961C34.7928 24.4436 34.7928 24.6673 34.7928 24.6673C34.7928 28.0981 34.6436 31.417 34.3453 34.6241C34.1216 37.8312 33.7859 40.5161 33.3384 42.679C33.8605 42.7536 34.3453 42.8282 34.7928 42.9028C35.3149 42.9028 35.837 42.9028 36.359 42.9028ZM117.277 91.0086C114.667 91.0086 112.392 90.1509 110.453 88.4355C108.514 86.7201 107.544 83.9232 107.544 80.0449C107.544 79.672 107.544 79.2991 107.544 78.9262C107.544 78.5533 107.581 78.1804 107.656 77.8075C105.419 82.2824 102.883 85.6013 100.049 87.7642C97.289 89.8526 94.4921 90.8967 91.658 90.8967C89.0476 90.8967 86.5864 90.0017 84.2743 88.2117C81.9623 86.3472 80.0977 83.6249 78.6806 80.0449C77.2636 76.465 76.555 72.1392 76.555 67.0676C76.555 61.8468 77.2636 57.1854 78.6806 53.0833C80.1723 48.9813 82.1114 45.5132 84.4981 42.679C86.8847 39.8449 89.4951 37.7193 92.3293 36.3022C95.1634 34.8106 97.923 34.0647 100.608 34.0647C103.591 34.0647 106.276 34.997 108.663 36.8616C111.049 38.6516 112.69 41.523 113.585 45.4759C113.809 44.208 113.958 43.0519 114.033 42.0078C114.182 40.9636 114.257 40.2551 114.257 39.8822C114.331 37.8684 115.338 36.3768 117.277 35.4072C119.291 34.4376 121.491 33.9529 123.878 33.9529C125.966 33.9529 127.942 34.3631 129.807 35.1835C131.672 36.0039 132.94 37.3837 133.611 39.3228L133.835 39.994C132.94 42.0078 132.045 44.4317 131.15 47.2659C130.255 50.1 129.434 53.0833 128.688 56.2158C127.942 59.2737 127.346 62.2943 126.898 65.2776C126.451 68.1863 126.227 70.7594 126.227 72.9969C126.227 75.4581 126.488 77.1735 127.01 78.1431C127.532 79.0381 128.166 79.4856 128.912 79.4856C130.18 79.4856 131.336 78.5906 132.38 76.8006L133.275 77.2481C133.275 79.7839 132.455 82.096 130.814 84.1843C129.173 86.2726 127.122 87.9507 124.661 89.2186C122.2 90.4119 119.738 91.0086 117.277 91.0086ZM99.0417 76.8006C100.981 76.8006 103.106 75.0852 105.419 71.6544C107.805 68.149 109.856 63.152 111.572 56.6633C111.721 55.992 111.87 55.3581 112.019 54.7614C112.168 54.0902 112.28 53.4562 112.355 52.8596C111.161 50.1 109.893 48.1608 108.551 47.0421C107.283 45.8488 106.015 45.2521 104.747 45.2521C102.883 45.2521 101.13 46.259 99.4892 48.2727C97.923 50.2119 96.6178 52.6731 95.5736 55.6564C94.604 58.6397 94.1192 61.623 94.1192 64.6063C94.1192 68.7084 94.5667 71.7663 95.4617 73.78C96.4313 75.7937 97.6246 76.8006 99.0417 76.8006ZM155.807 90.8967C153.421 90.8967 151.146 90.3746 148.983 89.3305C146.895 88.2117 145.179 86.4963 143.837 84.1843C142.569 81.8722 141.935 78.9262 141.935 75.3462C141.935 73.4071 142.121 70.8713 142.494 67.7388C142.867 64.6063 143.352 61.1755 143.949 57.4464C144.62 53.7173 145.291 49.9881 145.962 46.259C144.471 46.3336 143.016 46.4827 141.599 46.7065C140.257 46.9302 138.914 47.1913 137.572 47.4896L137.348 46.7065C138.84 44.9165 140.406 43.3876 142.047 42.1197C143.688 40.8517 145.403 39.8076 147.193 38.9872C148.163 34.0647 148.983 29.8135 149.654 26.2336C150.325 22.579 150.661 20.4161 150.661 19.7449C150.661 18.477 151.631 17.4328 153.57 16.6124C155.584 15.792 157.821 15.3818 160.282 15.3818C162.445 15.3818 164.459 15.792 166.323 16.6124C168.263 17.4328 169.568 18.8126 170.239 20.7517C169.792 21.1992 169.158 22.8773 168.337 25.7861C167.517 28.6202 166.659 32.0883 165.764 36.1903C167.181 36.2649 168.635 36.3395 170.127 36.4141C171.619 36.4887 173.148 36.6005 174.714 36.7497C174.863 37.1972 174.975 37.682 175.05 38.2041C175.124 38.7261 175.161 39.2855 175.161 39.8822C175.161 41.0009 174.975 42.2315 174.602 43.574C174.304 44.8419 173.931 45.998 173.483 47.0421C171.693 46.8929 170.015 46.7438 168.449 46.5946C166.883 46.3709 165.354 46.2217 163.862 46.1471C163.266 49.3542 162.706 52.5612 162.184 55.7683C161.737 58.9753 161.364 61.8841 161.065 64.4945C160.842 67.1048 160.73 69.1559 160.73 70.6475C160.73 73.78 161.289 75.8683 162.408 76.9125C163.601 77.9566 165.018 78.4787 166.659 78.4787C168.151 78.4787 169.493 78.1804 170.686 77.5837C171.88 76.987 172.738 76.2785 173.26 75.4581L174.378 75.7937C173.931 78.8516 172.738 81.5366 170.798 83.8487C168.859 86.0861 166.547 87.8388 163.862 89.1067C161.177 90.3001 158.492 90.8967 155.807 90.8967ZM202.103 91.2323C196.658 91.2323 192.146 90.1509 188.566 87.988C184.986 85.7505 182.301 82.8418 180.511 79.2618C178.721 75.6073 177.826 71.6917 177.826 67.5151C177.826 63.5622 178.572 59.6093 180.064 55.6564C181.63 51.6289 183.868 47.9744 186.776 44.6928C189.76 41.4111 193.34 38.7634 197.516 36.7497C201.767 34.736 206.541 33.7291 211.836 33.7291C218.399 33.7291 223.173 35.2208 226.156 38.2041C229.214 41.1128 230.743 44.6555 230.743 48.8321C230.743 52.4121 229.773 55.731 227.834 58.7889C225.969 61.7722 223.471 64.1961 220.338 66.0607C217.206 67.8507 213.775 68.7457 210.046 68.7457C208.107 68.7457 206.13 68.4473 204.117 67.8507C202.103 67.254 200.127 66.3217 198.187 65.0538C198.56 69.6779 199.903 73.0342 202.215 75.1225C204.527 77.2108 207.286 78.255 210.494 78.255C212.731 78.255 214.968 77.8447 217.206 77.0243C219.443 76.1293 221.494 75.0106 223.359 73.6681C225.298 72.251 226.79 70.7594 227.834 69.1932L228.617 69.7525C228.617 73.6308 227.797 76.9498 226.156 79.7093C224.59 82.3943 222.501 84.5945 219.891 86.3099C217.281 88.0253 214.409 89.2932 211.277 90.1136C208.219 90.8594 205.161 91.2323 202.103 91.2323ZM204.676 61.0264C207.063 61.0264 209.002 60.3551 210.494 59.0126C211.985 57.5956 213.104 55.9547 213.85 54.0902C214.596 52.2256 214.968 50.5848 214.968 49.1677C214.968 47.4523 214.484 46.0352 213.514 44.9165C212.545 43.7232 211.202 43.1265 209.487 43.1265C208.144 43.1265 206.653 43.6113 205.012 44.5809C203.445 45.5505 202.028 47.2286 200.76 49.6152C199.493 51.9273 198.672 55.1716 198.299 59.3482C200.686 60.467 202.812 61.0264 204.676 61.0264Z" fill="#6C8AD2"/>
<path d="M383.971 92.5149C381.225 92.5149 378.607 91.9142 376.119 90.7127C373.716 89.4255 371.742 87.4516 370.197 84.7913C368.738 82.1309 368.009 78.7411 368.009 74.6219C368.009 72.3906 368.224 69.4728 368.653 65.8684C369.082 62.2641 369.64 58.3165 370.326 54.0256C371.098 49.7347 371.871 45.4438 372.643 41.1529C370.927 41.2387 369.253 41.4103 367.623 41.6678C366.078 41.9252 364.533 42.2256 362.989 42.5689L362.731 41.6678C364.448 39.6081 366.25 37.8489 368.138 36.39C370.026 34.9311 372 33.7296 374.059 32.7856C375.175 27.1216 376.119 22.23 376.891 18.1108C377.663 13.9057 378.05 11.4169 378.05 10.6446C378.05 9.18568 379.165 7.98423 381.397 7.04023C383.714 6.09624 386.288 5.62424 389.12 5.62424C391.609 5.62424 393.926 6.09624 396.071 7.04023C398.303 7.98423 399.805 9.57186 400.577 11.8031C400.062 12.318 399.333 14.2489 398.389 17.5958C397.445 20.8569 396.458 24.8475 395.428 29.5674C397.058 29.6533 398.732 29.7391 400.448 29.8249C402.165 29.9107 403.924 30.0394 405.726 30.2111C405.898 30.726 406.026 31.2838 406.112 31.8845C406.198 32.4853 406.241 33.1289 406.241 33.8154C406.241 35.1027 406.026 36.5187 405.597 38.0634C405.254 39.5223 404.825 40.8525 404.31 42.054C402.25 41.8823 400.319 41.7107 398.517 41.539C396.715 41.2816 394.956 41.11 393.239 41.0241C392.553 44.7143 391.909 48.4045 391.309 52.0947C390.794 55.7848 390.365 59.1317 390.021 62.1354C389.764 65.139 389.635 67.499 389.635 69.2153C389.635 72.8197 390.279 75.2226 391.566 76.424C392.939 77.6255 394.57 78.2262 396.458 78.2262C398.174 78.2262 399.719 77.8829 401.092 77.1964C402.465 76.5099 403.452 75.6946 404.053 74.7506L405.34 75.1368C404.825 78.6553 403.452 81.7448 401.221 84.4051C398.989 86.9797 396.329 88.9964 393.239 90.4553C390.15 91.8284 387.061 92.5149 383.971 92.5149ZM437.241 92.9011C430.976 92.9011 425.784 91.6567 421.665 89.168C417.546 86.5935 414.456 83.2466 412.397 79.1273C410.337 74.9222 409.307 70.4168 409.307 65.611C409.307 61.0626 410.165 56.5143 411.882 51.9659C413.684 47.3318 416.258 43.1267 419.605 39.3507C423.038 35.5747 427.157 32.5282 431.963 30.2111C436.855 27.894 442.347 26.7355 448.44 26.7355C455.992 26.7355 461.484 28.4518 464.917 31.8845C468.436 35.2314 470.195 39.3078 470.195 44.1136C470.195 48.2328 469.079 52.0517 466.848 55.5703C464.703 59.003 461.828 61.7921 458.223 63.9375C454.619 65.9972 450.671 67.027 446.381 67.027C444.149 67.027 441.875 66.6837 439.558 65.9972C437.241 65.3106 434.967 64.2379 432.735 62.779C433.165 68.0997 434.709 71.9615 437.37 74.3644C440.03 76.7673 443.205 77.9688 446.895 77.9688C449.47 77.9688 452.045 77.4968 454.619 76.5528C457.194 75.523 459.554 74.2357 461.699 72.691C463.93 71.0604 465.647 69.3441 466.848 67.5419L467.749 68.1855C467.749 72.6481 466.805 76.467 464.917 79.6422C463.115 82.7317 460.712 85.2633 457.708 87.2371C454.705 89.2109 451.401 90.6698 447.797 91.6138C444.278 92.472 440.759 92.9011 437.241 92.9011ZM440.202 58.1448C442.948 58.1448 445.179 57.3725 446.895 55.8277C448.612 54.1972 449.899 52.3092 450.757 50.1638C451.615 48.0183 452.045 46.1303 452.045 44.4998C452.045 42.526 451.487 40.8954 450.371 39.6081C449.255 38.2351 447.711 37.5485 445.737 37.5485C444.192 37.5485 442.476 38.1063 440.588 39.222C438.786 40.3376 437.155 42.2685 435.696 45.0147C434.237 47.675 433.293 51.4081 432.864 56.2139C435.61 57.5012 438.056 58.1448 440.202 58.1448ZM523.802 92.6436C520.798 92.6436 518.181 91.6567 515.949 89.6829C513.718 87.7091 512.602 84.4909 512.602 80.0284C512.602 79.5993 512.602 79.1702 512.602 78.7411C512.602 78.312 512.645 77.8829 512.731 77.4539C510.157 82.6029 507.239 86.4218 503.978 88.9106C500.803 91.3135 497.584 92.5149 494.323 92.5149C491.32 92.5149 488.488 91.4851 485.827 89.4255C483.167 87.28 481.021 84.1477 479.391 80.0284C477.76 75.9091 476.945 70.9317 476.945 65.0961C476.945 59.0888 477.76 53.7252 479.391 49.0052C481.107 44.2852 483.339 40.2947 486.085 37.0336C488.831 33.7725 491.835 31.3267 495.096 29.6962C498.357 27.9798 501.532 27.1216 504.621 27.1216C508.054 27.1216 511.144 28.1944 513.89 30.3398C516.636 32.3994 518.524 35.7034 519.554 40.2518C519.811 38.7929 519.983 37.4627 520.069 36.2612C520.24 35.0598 520.326 34.2445 520.326 33.8154C520.412 31.4983 521.57 29.782 523.802 28.6664C526.119 27.5507 528.65 26.9929 531.397 26.9929C533.8 26.9929 536.074 27.4649 538.219 28.4089C540.365 29.3529 541.823 30.9405 542.596 33.1718L542.853 33.9442C541.823 36.2612 540.794 39.0503 539.764 42.3114C538.734 45.5725 537.79 49.0052 536.932 52.6096C536.074 56.1281 535.387 59.6037 534.872 63.0364C534.357 66.3833 534.1 69.3441 534.1 71.9186C534.1 74.7506 534.4 76.7244 535.001 77.84C535.602 78.8699 536.331 79.3848 537.189 79.3848C538.648 79.3848 539.978 78.3549 541.18 76.2953L542.21 76.8102C542.21 79.728 541.266 82.3884 539.378 84.7913C537.49 87.1942 535.13 89.1251 532.298 90.584C529.466 91.9571 526.634 92.6436 523.802 92.6436ZM502.819 76.2953C505.05 76.2953 507.496 74.3215 510.157 70.3739C512.903 66.3404 515.263 60.5906 517.237 53.1245C517.408 52.3521 517.58 51.6227 517.752 50.9361C517.923 50.1638 518.052 49.4343 518.138 48.7478C516.765 45.5725 515.306 43.3412 513.761 42.054C512.302 40.6809 510.843 39.9943 509.384 39.9943C507.239 39.9943 505.222 41.1529 503.334 43.47C501.532 45.7012 500.03 48.5332 498.829 51.9659C497.713 55.3986 497.155 58.8314 497.155 62.2641C497.155 66.9841 497.67 70.5026 498.7 72.8197C499.816 75.1368 501.189 76.2953 502.819 76.2953Z" fill="#6C8AD2"/>
<path d="M275.595 71.8859C272.707 76.3661 267.582 79.0746 261.514 81.4814C257.33 91.1873 252.033 102.846 245.967 105.107C244.578 105.601 243.196 105.586 241.836 103.533C240.405 101.333 238.978 98.7701 240.481 94.4929C242.737 87.9678 248.972 83.6705 256.208 80.9128C256.954 79.2472 257.702 77.436 258.522 75.6984C256.24 78.002 253.454 79.8632 250.545 79.6124C245.311 79.1173 245.224 73.8034 246.952 69.0192C248.604 64.3797 252.251 57.2151 257.054 50.7185C257.645 49.9245 258.372 50.0054 258.873 50.7388C260.594 53.0869 260.123 56.1384 257.382 60.4019C254.716 64.5934 253.081 67.5592 251.661 70.964C250.165 74.5135 250.282 77.0622 251.955 77.2264C254.79 77.4763 258.481 72.8596 262.263 66.5699C265.452 61.2197 268.654 54.7052 271.242 51.0223C271.908 50.0836 272.419 49.9437 273.067 50.5332C274.072 51.8544 274.619 54.9901 272.685 58.6803C270.455 62.8767 265.919 71.5597 262.784 78.5844C268.494 75.5913 272.834 71.4912 275.789 67.5213C276.159 67.0159 276.814 66.9505 276.952 67.6798C277.09 68.3364 276.853 70.0077 275.595 71.8859ZM254.936 83.9554C245.415 89.3077 242.029 99.2408 243.319 101.075C244.25 102.468 250.305 94.6024 254.936 83.9554ZM332.278 73.0275C330.121 77.1519 325.642 80.741 321.348 80.6931C316.618 80.6404 314.831 77.7092 315.46 73.495C312.876 76.8141 309.122 80.6295 304.978 80.2194C299.816 79.7252 299.73 74.4113 301.384 69.6262C301.987 67.8134 302.957 65.6409 304.219 63.3988C302.171 64.3221 299.909 64.8791 297.655 64.6356C295.913 70.7297 291.394 77.8845 286.208 79.5734C283.506 80.4166 279.798 80.0842 277.002 76.2684C273.848 71.9392 275.009 65.6931 278.276 59.9071C281.097 54.9167 285.654 50.8919 290.024 50.6495C292.209 50.5283 293.438 51.197 294.945 53.1789C296.667 55.3815 298.7 55.8408 298.276 61.2218C298.271 61.6585 298.193 62.0943 298.114 62.6756C302.263 62.6491 306.303 59.2735 308.822 55.2987C309.563 54.1425 310.745 52.5545 311.632 51.3271C312.223 50.5331 312.877 50.6132 313.452 51.2747C315.026 53.694 314.628 56.7463 311.961 61.0106C309.293 65.2748 307.587 68.167 306.166 71.5718C304.671 75.1214 304.861 77.6708 306.46 77.8342C309.296 78.0842 313.426 73.1812 317.354 66.8931C321.947 59.5935 324.114 54.5959 326.405 51.4919C327.07 50.5532 327.654 50.4141 328.229 51.0755C329.306 52.3976 329.853 55.5332 328.066 59.1523C326.428 62.4092 322.803 67.6817 321.087 71.4471C319.148 75.6467 319.406 78.6336 322.027 78.5173C325.013 78.405 328.85 73.6443 331.672 68.5812C332.044 67.9303 332.627 67.864 332.983 68.523C333.34 69.182 333.319 71.0741 332.278 73.0275ZM294.113 56.008C293.847 53.6761 292.168 54.1668 291.927 56.202C291.687 58.1644 292.249 59.9901 293.546 61.1691C294.151 59.0652 294.244 57.2468 294.113 56.008ZM293.013 63.2738C290.554 61.8635 288.33 59.0003 288.363 56.0167C286.453 57.5965 284.242 60.0464 282.61 62.8666C279.492 68.2904 278.4 74.9012 280.273 76.596C282.146 78.2909 286.688 75.7214 290.4 69.1398C291.588 67.0424 292.337 65.0857 293.013 63.2738ZM342.624 56.6946C344.956 56.4295 347.443 55.2927 350.156 53.4307C351.036 52.8583 351.62 52.7192 352.123 53.3071C353.488 54.8507 355.199 58.0721 353.062 60.45C349.746 64.1248 346.129 68.6696 344.923 72.4407C343.716 76.2118 344.558 79.0596 346.667 79.156C349.504 79.3331 353.047 74.8603 355.434 69.6467C355.732 69.0678 356.169 68.9999 356.454 69.5853C356.809 70.3899 356.862 72.1372 356.04 74.0931C354.319 78.2951 350.064 81.3045 346.209 81.1159C340.972 80.8392 338.915 76.0127 340.795 70.5752C342.449 65.7902 346.728 60.6705 349.676 57.3555C346.451 59.4301 343.314 60.0502 341.131 60.0258C338.309 65.089 331.208 75.3445 329.751 81.9513C329.598 82.6046 329.158 82.9636 328.51 82.3014C326.424 80.0947 326.461 76.7472 328.467 73.0578C330.177 69.8745 335.129 63.0884 337.864 59.2616C333.746 56.5228 340.173 48.0064 342.867 47.9637C345.123 47.9161 344.494 52.1303 342.624 56.6946Z" fill="#6C8AD2"/>
</svg>
